{"glyphs":{":":{"x_min":0,"x_max":73,"ha":73,"o":"m 39 331 q 39 325 35 321 q 31 316 25 316 q 19 316 15 321 q 11 325 11 331 q 11 336 15 341 q 19 345 25 345 q 31 345 35 341 q 39 336 39 331 z m 28 238 q 28 232 24 228 q 20 224 14 224 q 8 224 4 228 q 0 232 0 238 q 0 244 4 248 q 8 252 14 252 q 20 252 24 248 q 28 244 28 238 z"},"$":{"x_min":0,"x_max":271,"ha":271,"o":"m 137 374 l 187 540 q 182 541 176 541 q 150 537 128 509 q 106 481 107 446 q 110 427 121 404 q 128 389 137 374 z m 78 110 q 104 105 130 127 q 151 146 162 182 q 172 218 167 259 q 165 278 154 300 q 148 312 142 324 z m 150 350 q 162 329 172 307 q 184 283 187 261 q 192 215 180 174 q 168 134 143 112 q 116 90 87 90 q 80 90 72 91 l 60 53 q 57 46 51 46 q 49 46 48 46 q 44 47 42 51 q 41 54 42 58 l 54 98 q 16 117 1 167 q 0 171 2 174 q 4 178 8 179 q 12 180 15 178 q 19 176 20 172 q 31 133 59 117 l 129 347 q 114 372 103 397 q 90 422 88 445 q 86 489 114 522 q 141 556 175 560 q 184 561 193 559 l 202 590 q 204 594 207 596 q 210 598 214 597 q 218 596 220 592 q 222 589 221 584 l 210 550 l 216 544 q 233 525 237 487 q 237 483 235 480 q 232 477 228 477 q 224 476 221 479 q 218 481 217 485 q 216 503 208 522 q 206 526 204 528 z"},"?":{"x_min":0,"x_max":312,"ha":312,"o":"m 25 124 q 24 124 22 125 q 18 126 17 130 q 15 133 17 137 q 39 191 75 241 q 111 290 149 333 q 180 370 205 403 q 229 436 241 464 q 255 506 233 529 q 206 553 163 539 q 81 505 66 376 q 66 372 63 370 q 60 367 56 368 q 52 368 49 371 q 47 374 47 378 q 63 520 156 558 q 211 576 247 543 q 277 511 259 458 q 247 426 221 392 q 195 358 164 321 q 127 278 91 230 q 56 182 35 130 q 32 125 25 124 z m 11 78 q 9 78 7 78 q 3 80 1 83 q 0 87 1 91 l 7 105 q 8 108 12 110 q 16 112 20 110 q 23 109 25 105 q 26 102 25 98 l 20 83 q 17 78 11 78 z"},"<":{"x_min":0,"x_max":226,"ha":226,"o":"m 131 223 q 129 223 127 224 l 6 275 q 0 278 0 284 q 0 291 6 293 l 178 356 q 182 357 186 355 q 189 354 190 350 q 192 346 190 343 q 188 339 185 337 l 37 284 l 135 242 q 139 240 141 237 q 142 233 141 229 q 137 223 131 223 z"},"'":{"x_min":0,"x_max":69,"ha":69,"o":"m 10 523 q 5 523 2 528 q 0 532 1 536 q 2 540 6 542 q 11 544 13 551 q 15 557 15 563 q 15 570 14 572 q 13 576 13 579 q 14 583 18 585 q 21 587 25 587 q 29 586 31 583 q 34 577 34 567 q 35 558 33 549 q 28 531 15 524 q 13 523 10 523 z"},"=":{"x_min":0,"x_max":223,"ha":223,"o":"m 179 306 q 178 306 178 306 q 178 306 178 306 l 19 309 q 15 309 12 312 q 10 315 10 319 q 10 323 12 326 q 15 329 20 329 l 179 326 q 183 325 186 323 q 188 320 188 315 q 188 312 185 309 q 183 306 179 306 z m 169 224 q 169 224 169 224 q 169 224 169 224 l 10 228 q 5 228 3 230 q 0 233 0 237 q 0 242 3 244 q 6 247 10 247 l 169 244 q 173 244 176 241 q 179 238 179 234 q 179 230 176 227 q 173 224 169 224 z"},"a":{"x_min":0,"x_max":240,"ha":240,"o":"m -32 204 q -37 204 -41 206 q -45 207 -49 213 q -54 219 -54 232 q -52 263 -28 302 q -3 342 30 355 q 41 360 56 358 q 70 355 86 339 q 96 352 102 360 q 107 368 108 368 q 110 372 114 372 q 117 373 121 371 q 124 369 125 366 q 126 362 125 359 q 103 306 101 279 q 100 252 110 247 q 125 238 159 259 q 193 280 233 328 q 235 332 239 332 q 243 333 247 330 q 250 327 250 323 q 250 319 248 316 q 174 228 120 225 q 108 225 100 230 q 89 235 83 253 q 78 271 86 308 q 62 276 35 248 q -10 204 -32 204 z m -33 224 q -33 224 -33 224 q -33 224 -31 224 q -29 224 -25 225 q -21 227 -15 231 q -9 235 0 242 q 8 250 21 262 q 49 291 74 323 q 73 324 72 325 q 58 342 41 338 q 19 333 -1 306 q -21 279 -31 250 q -35 236 -34 230 q -34 224 -33 224 q -33 224 -33 224 z"},"L":{"x_min":0,"x_max":562,"ha":562,"o":"m 135 57 q 134 55 134 53 q 132 46 132 44 q 132 42 132 41 q 128 34 122 34 l 120 34 q 117 35 114 38 q 112 41 113 48 l 115 55 q 98 53 83 52 q 16 44 11 43 l 10 43 q 6 43 4 46 q 1 48 0 52 q 0 56 2 59 q 5 62 9 63 q 13 64 81 71 q 99 73 120 75 q 124 94 131 125 q 141 160 171 247 q 200 334 236 434 q 271 534 298 608 q 325 683 329 693 q 330 697 333 698 q 337 700 341 699 q 345 697 346 694 q 348 690 347 687 q 345 681 318 608 q 292 535 256 433 q 220 332 190 244 q 160 155 150 120 q 144 93 140 77 q 186 82 241 85 q 333 92 416 91 q 526 89 551 88 l 569 88 q 570 88 571 88 l 572 88 q 582 87 582 78 q 581 74 578 71 q 575 68 571 68 q 571 68 570 68 q 569 68 566 69 q 564 69 559 69 q 554 69 546 69 q 539 69 527 70 q 516 70 500 70 q 484 70 463 71 q 442 71 416 72 q 334 73 242 66 q 183 62 135 57 z"},"3":{"x_min":0,"x_max":336,"ha":336,"o":"m 104 66 q 86 66 68 71 q 23 83 1 131 q 0 135 1 139 q 3 143 6 145 q 10 146 14 145 q 18 143 20 140 q 38 100 73 90 q 120 77 161 101 q 208 129 223 186 q 238 253 208 302 q 184 339 138 347 q 131 349 130 355 q 130 362 136 366 q 137 366 156 377 q 174 387 197 405 q 221 423 236 446 q 279 516 257 564 q 243 590 216 592 q 174 592 141 539 q 138 536 134 535 q 130 534 127 536 q 124 538 123 542 q 122 545 124 549 q 164 612 216 611 q 255 609 274 573 q 302 515 252 436 q 235 410 210 391 q 186 371 166 360 q 202 346 224 313 q 258 256 242 181 q 225 116 170 83 q 140 66 104 66 z"},";":{"x_min":0,"x_max":64,"ha":64,"o":"m 0 205 q -2 205 -5 206 q -8 209 -9 213 q -10 216 -7 220 q -5 224 -4 230 q -3 236 -3 239 q -3 243 0 246 q 3 249 7 249 q 11 249 14 246 q 17 243 17 239 q 17 238 16 233 q 16 228 14 221 q 12 214 8 208 q 5 205 0 205 z m 30 331 q 30 325 26 321 q 22 316 16 316 q 10 316 6 321 q 2 325 2 331 q 2 336 6 341 q 10 345 16 345 q 22 345 26 341 q 30 336 30 331 z"},"J":{"x_min":0,"x_max":406,"ha":406,"o":"m 64 -6 q 54 -6 45 -3 q 0 15 1 86 q 6 178 87 267 q 169 354 305 403 q 340 500 362 572 q 384 645 386 662 q 376 665 338 644 q 297 617 277 585 q 253 545 288 520 q 291 518 292 514 q 292 510 290 506 q 287 503 283 502 q 279 502 276 504 q 233 537 255 585 q 277 625 321 655 q 364 685 391 681 q 405 677 405 662 q 404 643 382 572 q 360 501 329 412 q 349 418 369 423 q 373 424 376 422 q 379 420 381 417 q 382 413 380 409 q 378 406 374 405 q 346 397 321 388 q 294 314 256 222 q 218 130 184 81 q 119 -5 64 -6 z m 296 379 q 175 332 102 253 q 25 170 21 85 q 20 29 52 16 q 100 2 168 92 q 216 160 296 379 z"},"V":{"x_min":0,"x_max":327,"ha":327,"o":"m 23 -9 q 20 -9 17 -8 q 13 -6 9 -1 q 5 4 3 17 q 0 29 0 53 q 0 77 2 116 q 8 202 27 348 q 44 476 60 573 q 76 671 77 677 q 78 681 81 683 q 84 686 88 685 q 92 684 94 681 q 97 678 96 674 q 95 668 80 573 q 65 479 48 354 q 29 211 22 125 q 19 65 20 41 q 22 16 24 12 l 26 14 q 63 59 109 138 q 154 218 203 312 q 252 405 300 491 q 349 577 395 640 q 440 704 481 728 q 485 729 489 729 q 492 728 495 724 q 497 720 495 716 q 494 712 491 710 q 452 688 407 624 q 361 561 314 476 q 266 391 221 303 q 170 208 125 128 q 79 47 41 1 q 30 -9 23 -9 z"},"\"":{"x_min":0,"x_max":108,"ha":108,"o":"m 10 523 q 5 523 2 528 q 0 532 1 536 q 2 540 6 542 q 11 544 13 551 q 15 557 15 563 q 15 570 14 572 q 13 576 13 579 q 14 583 18 585 q 21 587 25 587 q 29 586 31 583 q 34 577 34 567 q 35 558 33 549 q 28 531 15 524 q 13 523 10 523 z m 49 523 q 44 523 41 528 q 39 532 40 536 q 42 540 45 542 q 50 544 52 551 q 54 557 54 563 q 54 570 53 572 q 52 576 52 579 q 53 583 57 585 q 60 587 64 587 q 68 586 70 583 q 73 577 73 567 q 74 558 72 549 q 67 531 54 524 q 52 523 49 523 z"},"7":{"x_min":0,"x_max":303,"ha":303,"o":"m 140 328 q 139 327 139 327 q 92 235 57 166 q 22 97 19 92 q 16 86 10 86 q 8 86 6 87 q 2 89 1 93 q 0 97 2 101 q 7 110 40 174 q 72 239 116 324 l 118 328 l 98 328 q 94 328 91 331 q 88 334 88 338 q 88 342 91 345 q 94 348 98 348 l 127 348 q 164 419 196 481 q 232 553 245 578 q 239 580 215 581 q 191 582 140 579 q 101 577 72 574 q 43 572 41 571 q 37 571 34 574 q 31 576 30 580 q 30 584 33 587 q 35 590 39 591 q 41 591 72 594 q 103 596 144 599 q 190 601 218 600 q 243 599 253 596 q 263 593 265 588 q 269 582 266 575 q 259 563 222 491 q 189 426 149 348 l 168 348 q 172 348 175 345 q 178 342 178 338 q 178 334 175 331 q 172 328 168 328 z"},"S":{"x_min":0,"x_max":404,"ha":404,"o":"m 60 4 q 27 6 18 20 q 0 40 13 72 q 26 107 77 146 q 129 186 220 207 q 204 246 165 293 q 136 330 111 371 q 85 412 77 457 q 69 502 92 550 q 134 629 210 677 q 279 720 344 720 q 408 718 430 674 q 445 649 434 598 q 423 546 358 458 q 356 455 352 455 q 348 454 345 457 q 342 459 341 463 q 340 467 343 470 q 386 528 402 567 q 419 606 419 630 q 419 654 413 666 q 396 699 344 700 q 343 700 342 700 q 306 700 262 682 q 218 664 178 629 q 138 593 110 541 q 89 499 97 458 q 104 417 128 379 q 152 341 181 305 q 201 279 217 256 q 232 232 239 211 q 268 216 300 218 q 304 219 307 216 q 310 213 311 209 q 311 205 308 202 q 306 199 301 199 q 270 197 243 192 q 251 128 208 77 q 168 32 107 12 q 79 4 60 4 z m 224 188 q 150 170 114 146 q 50 109 31 65 q 28 59 27 49 q 26 40 32 33 q 49 16 102 31 q 154 47 191 87 q 229 128 224 188 z"},"}":{"x_min":0,"x_max":282,"ha":282,"o":"m 10 7 q 6 7 4 10 q 1 12 0 16 q 0 20 2 23 q 5 26 9 27 q 17 27 28 34 q 39 40 48 56 q 56 70 69 102 q 83 134 96 170 q 110 206 116 229 q 123 252 135 266 q 148 280 160 287 q 152 295 149 313 q 146 340 188 445 q 209 500 219 533 q 224 550 222 559 q 221 567 219 569 q 217 571 216 572 q 214 573 213 573 q 211 574 211 574 q 208 574 205 577 q 202 580 202 583 q 202 587 205 590 q 208 593 211 593 q 212 593 216 593 q 220 592 225 590 q 229 587 234 582 q 248 564 238 528 q 228 494 207 438 q 192 402 180 365 q 167 329 168 317 q 169 308 172 303 q 175 299 177 297 q 180 295 181 295 q 188 294 188 287 q 189 283 187 281 q 185 278 182 276 q 182 276 176 273 q 170 271 162 264 q 154 258 146 248 q 139 238 135 224 q 129 200 115 164 q 101 127 87 94 q 73 61 65 47 q 53 25 38 17 q 22 8 12 8 q 11 7 10 7 z"},"Z":{"x_min":0,"x_max":548,"ha":548,"o":"m 11 36 q 7 36 4 40 q 0 44 2 50 q 10 62 138 229 q 196 304 283 386 q 369 468 449 535 q 529 603 568 633 q 530 636 385 641 q 327 643 296 641 q 265 639 253 636 q 241 633 239 631 q 238 625 233 623 q 229 622 226 623 q 222 625 221 629 q 220 630 220 634 q 220 637 223 642 q 224 644 227 646 q 231 649 240 653 q 250 656 267 658 q 285 661 314 661 q 343 662 386 661 q 467 658 513 656 q 559 653 577 652 q 596 651 595 651 q 602 650 604 645 q 605 638 601 634 q 595 630 512 562 q 429 495 326 400 q 222 305 153 218 q 55 88 35 62 q 60 67 108 70 q 157 72 228 65 q 296 58 349 66 q 401 74 431 84 q 461 94 463 95 q 466 97 470 95 q 474 94 476 90 q 478 87 476 83 q 475 80 471 78 q 467 74 417 59 q 368 44 285 42 q 256 42 226 45 q 123 55 69 47 q 15 39 14 37 q 13 36 11 36 z"},"x":{"x_min":0,"x_max":149,"ha":149,"o":"m 7 268 q 7 252 9 241 q 13 205 23 199 q 27 197 28 193 q 28 189 26 186 q 23 181 18 181 q 15 181 13 183 q -8 197 -12 249 q -54 205 -100 152 q -103 148 -107 148 q -111 148 -114 151 q -117 154 -117 158 q -117 162 -115 165 q -62 226 -13 275 l -12 275 q -12 309 -6 354 q -5 358 -2 360 q 1 362 5 362 q 9 361 12 358 q 14 355 14 351 q 10 320 8 295 q 51 336 112 387 q 115 390 119 390 q 123 389 126 386 q 128 383 128 379 q 127 375 125 373 q 54 313 7 268 z"},")":{"x_min":0,"x_max":245,"ha":245,"o":"m 10 58 q 5 58 2 62 q 0 66 1 70 q 2 74 5 76 q 56 109 99 199 q 142 289 163 393 q 184 497 169 572 q 168 577 171 580 q 173 583 177 584 q 181 585 184 583 q 188 581 188 577 q 210 462 156 288 q 97 112 16 59 q 13 58 10 58 z"},"&":{"x_min":0,"x_max":327,"ha":327,"o":"m 201 31 q 199 31 196 32 q 160 55 141 104 q 78 71 28 68 q -21 64 -44 90 q -78 136 -4 220 q 53 282 105 326 q 105 415 117 464 q 127 506 144 525 q 160 543 175 548 q 191 553 205 551 q 219 548 228 541 q 243 528 242 494 q 241 460 218 416 q 205 394 181 370 q 157 346 125 317 q 125 217 151 132 q 173 146 186 161 q 198 176 204 190 q 210 204 212 212 q 213 221 213 222 q 214 226 217 229 q 219 231 224 231 q 228 231 230 228 q 233 225 233 221 q 233 219 229 201 q 225 183 209 159 q 193 134 158 113 q 158 113 158 113 q 158 113 158 113 q 176 68 206 49 q 210 47 211 43 q 212 39 210 36 q 207 31 201 31 z m 105 300 q 60 260 10 207 q -52 136 -29 103 q -14 84 29 87 q 72 90 133 122 q 115 179 110 235 q 106 268 105 300 z m 195 532 q 188 532 182 529 q 149 518 136 459 q 126 416 125 344 q 179 390 201 426 q 221 464 222 492 q 224 519 215 526 q 209 532 195 532 z"},"_":{"x_min":0,"x_max":369,"ha":369,"o":"m 294 131 q 294 131 294 131 q 294 131 294 131 l 12 134 q 5 134 0 137 q -5 140 -5 144 q -4 148 0 151 q 5 153 13 153 l 295 150 q 302 150 307 147 q 312 145 312 140 q 312 136 307 134 q 302 131 294 131 z"},"v":{"x_min":0,"x_max":167,"ha":167,"o":"m -3 194 q -6 194 -8 195 q -9 195 -10 196 q -14 198 -17 205 q -20 212 -19 231 q -18 250 -11 286 q -6 315 -1 336 q 3 358 4 359 q 5 363 8 365 q 12 368 16 367 q 20 366 21 362 q 23 359 23 355 q 22 354 18 334 q 14 315 9 288 q -1 229 0 218 q 22 241 52 286 q 82 331 98 357 q 100 361 103 362 q 106 363 110 361 q 113 360 115 357 q 117 354 116 350 q 116 350 115 346 q 115 343 115 338 q 116 333 119 329 q 122 324 128 321 q 135 318 141 319 q 147 319 152 321 q 156 323 159 325 q 162 327 162 327 q 165 330 169 329 q 173 329 176 326 q 178 323 178 319 q 178 315 175 312 q 175 312 170 309 q 166 306 158 302 q 151 299 141 299 q 131 299 120 304 q 105 312 100 324 q 81 293 54 254 q 26 215 8 198 q 1 194 -3 194 z"},"O":{"x_min":0,"x_max":473,"ha":473,"o":"m 75 321 q 11 151 50 60 q 65 28 92 19 q 129 7 176 34 q 223 61 272 120 q 329 190 367 278 q 406 367 415 452 q 423 538 390 601 q 339 683 245 663 q 204 653 165 623 q 126 594 100 548 q 74 502 70 443 q 68 407 76 375 q 104 432 134 472 q 164 512 189 536 q 221 565 241 579 q 261 593 263 593 q 267 595 271 594 q 274 593 276 589 q 278 585 277 582 q 276 578 272 576 q 271 576 251 563 q 232 550 202 521 q 176 497 145 453 q 113 410 85 347 q 104 299 132 269 q 160 238 178 230 q 182 229 184 225 q 185 221 183 217 q 182 213 178 212 q 174 210 170 212 q 151 220 124 248 q 97 276 75 321 z m 110 -4 q 98 -3 86 0 q 51 12 32 52 q -11 153 60 337 q 62 342 64 347 q 48 391 50 444 q 55 508 83 558 q 112 607 154 639 q 196 671 240 682 q 349 705 406 611 q 438 550 436 482 q 434 415 417 359 q 377 220 288 108 q 192 -7 110 -4 z"},"(":{"x_min":0,"x_max":233,"ha":233,"o":"m 30 74 q 25 74 22 78 q 0 110 1 172 q 2 234 17 295 q 39 395 79 474 q 126 564 184 596 q 188 598 191 597 q 195 596 197 592 q 199 588 198 585 q 197 581 193 579 q 153 556 122 509 q 91 461 69 404 q 47 346 36 292 q 21 221 21 166 q 21 112 38 89 q 40 86 39 82 q 39 79 36 76 q 33 74 30 74 z"},"C":{"x_min":0,"x_max":464,"ha":464,"o":"m 107 -17 q 89 -17 72 -11 q 0 16 0 151 q 0 226 26 311 q 51 397 95 469 q 143 546 202 601 q 262 656 314 672 q 353 683 374 673 q 396 664 405 648 q 430 609 417 539 q 403 473 368 429 q 365 426 361 425 q 357 425 354 427 q 351 430 351 434 q 350 438 353 441 q 384 481 397 541 q 410 601 388 638 q 369 668 319 654 q 270 638 214 585 q 157 533 111 459 q 69 389 44 306 q 20 223 20 151 q 20 30 79 7 q 119 -5 173 18 q 228 42 281 84 q 335 127 374 172 q 376 175 380 176 q 384 176 387 173 q 390 171 391 167 q 391 163 388 160 q 365 131 326 97 q 288 62 240 32 q 211 13 177 -1 q 142 -16 107 -17 z"},"W":{"x_min":0,"x_max":567,"ha":567,"o":"m 284 -44 q 269 -44 256 -35 q 199 3 202 214 q 203 276 208 327 q 188 270 158 205 q 128 139 92 94 q 51 44 26 58 q 0 70 4 144 q 8 215 38 337 q 83 516 113 590 q 143 664 145 664 q 147 667 151 668 q 155 669 159 667 q 162 666 163 662 q 164 658 162 654 q 161 656 131 582 q 102 508 57 333 q 35 238 28 183 q 21 128 24 103 q 27 78 35 75 q 39 73 49 80 q 60 86 78 107 q 105 141 130 192 q 154 243 174 293 q 193 344 204 378 q 215 413 216 416 q 217 419 220 421 q 224 423 228 422 q 231 421 233 418 q 235 415 235 411 q 234 408 229 350 q 224 292 222 213 q 220 16 267 -19 q 284 -31 311 -16 q 408 43 484 346 q 512 458 526 563 q 538 666 532 673 q 530 676 531 680 q 532 684 535 686 q 539 688 542 687 q 546 687 549 683 q 555 670 553 634 q 551 598 545 560 q 531 450 501 333 q 468 199 426 108 q 376 -1 321 -33 q 301 -44 284 -44 z"},"A":{"x_min":0,"x_max":771,"ha":771,"o":"m 506 -69 q 503 -69 501 -67 q 498 -65 497 -62 q 481 8 502 106 q 522 205 566 311 q 609 417 662 509 q 714 602 761 659 q 691 631 615 560 q 539 489 463 406 q 385 321 307 248 q 229 175 153 143 q 77 110 6 146 q 2 148 1 152 q 0 156 2 159 q 4 163 8 164 q 11 165 15 163 q 79 131 151 163 q 223 196 298 267 q 373 337 449 419 q 509 484 567 542 q 625 599 680 638 q 735 677 789 687 q 795 688 799 682 q 802 675 797 670 q 750 622 696 530 q 641 438 595 329 q 488 73 516 -57 q 517 -61 515 -64 q 513 -67 509 -68 q 508 -69 506 -69 z m 3 372 q -1 372 -4 376 q -7 379 -6 383 q -6 387 -2 389 q 0 392 31 409 q 62 426 115 440 q 168 454 239 448 q 326 437 413 420 q 473 409 526 401 q 579 393 616 396 q 678 401 712 409 q 747 417 748 417 q 752 418 755 417 q 759 415 760 411 q 761 407 760 403 q 758 400 754 398 q 752 397 717 389 q 681 381 617 376 q 578 374 524 381 q 470 389 409 401 q 323 418 237 428 q 170 434 119 421 q 68 407 39 391 q 10 375 9 374 q 6 372 3 372 z"},"f":{"x_min":0,"x_max":148,"ha":148,"o":"m -104 21 q -110 21 -114 27 q -115 29 -116 33 q -117 37 -116 47 q -115 56 -109 75 q -104 94 -93 125 q -65 200 -21 298 q 21 391 67 474 q 112 558 142 583 q 152 591 159 591 q 166 591 169 588 q 183 580 176 550 q 164 501 132 456 q 100 411 66 376 q 32 342 14 326 q 7 312 0 297 q -18 259 -33 222 q 19 230 60 257 q 100 284 141 328 q 144 331 148 331 q 152 331 155 329 q 158 326 158 322 q 158 318 155 314 q 112 269 68 240 q 24 210 -33 202 q -18 155 -38 102 q -57 49 -95 24 q -99 21 -104 21 z m -49 185 q -62 153 -71 126 q -95 62 -96 47 q -69 71 -55 111 q -42 150 -49 185 z m 159 571 q 157 570 154 568 q 116 535 37 375 q 71 408 107 455 q 144 503 157 554 q 160 567 159 571 z"},"Q":{"x_min":0,"x_max":555,"ha":555,"o":"m 274 40 q 217 7 182 9 q 154 10 138 20 q 91 46 87 120 l 87 136 q 53 135 16 114 q 12 112 8 113 q 4 114 2 117 q 0 121 1 125 q 2 128 5 130 q 46 155 88 155 q 95 260 150 378 q 224 528 322 566 q 359 580 386 566 q 398 560 405 551 q 412 542 415 535 q 417 528 418 527 q 419 523 417 520 q 415 517 411 515 q 407 514 403 516 q 400 518 399 522 q 399 522 397 527 q 395 532 390 539 q 385 545 376 549 q 358 559 329 548 q 262 521 211 445 q 160 370 133 280 q 111 211 107 154 q 126 152 146 145 q 178 133 208 113 q 238 92 270 68 q 272 66 275 64 q 364 124 430 236 q 498 354 509 474 q 513 517 501 566 q 489 616 447 653 q 377 706 278 665 q 214 635 175 580 q 136 524 131 457 q 131 453 128 450 q 125 448 121 448 q 117 448 114 451 q 111 454 111 458 q 116 531 159 591 q 201 651 271 682 q 380 728 459 668 q 537 604 528 473 q 517 348 446 226 q 380 114 292 51 q 323 28 355 9 q 399 -18 449 -25 q 499 -32 557 -5 q 561 -3 565 -4 q 568 -6 570 -9 q 572 -13 571 -17 q 569 -21 565 -22 q 517 -45 469 -45 q 432 -45 395 -32 q 357 -18 324 5 q 298 22 274 40 z m 107 135 l 107 121 q 110 58 147 37 q 189 16 257 53 q 217 84 179 108 q 143 129 107 135 z"},"w":{"x_min":0,"x_max":249,"ha":249,"o":"m 53 133 q 42 133 37 138 q 10 159 28 264 l 26 261 q 4 233 -9 221 q -12 219 -16 216 q -21 212 -26 211 q -32 209 -37 213 q -44 217 -43 230 q -42 243 -30 275 q -12 317 9 352 q 12 355 15 356 q 19 357 23 355 q 26 353 27 349 q 28 345 26 342 q 9 314 -5 284 q -18 253 -22 236 q -14 243 11 273 l 38 308 q 40 311 43 312 q 46 312 49 311 q 53 310 54 307 q 56 304 55 300 q 45 254 42 226 q 40 197 41 182 q 42 167 45 160 q 47 154 49 154 q 49 153 51 153 q 52 152 54 153 q 57 153 61 155 q 80 165 101 195 q 123 226 139 263 q 155 301 155 331 q 155 333 154 335 q 154 335 153 336 q 151 340 150 345 q 149 349 153 353 q 157 358 164 356 q 167 354 170 350 q 172 346 173 341 q 175 336 182 326 q 187 316 197 314 q 210 312 224 318 q 237 324 243 329 q 247 331 250 330 q 254 330 257 326 q 259 323 259 319 q 258 315 254 312 q 253 312 244 306 q 235 301 221 297 q 208 293 193 295 q 181 298 172 307 q 162 254 130 204 q 99 154 69 137 q 60 133 53 133 z"},"-":{"x_min":0,"x_max":213,"ha":213,"o":"m 169 272 q 169 272 169 272 q 169 272 169 272 l 10 275 q 5 275 3 278 q 0 281 0 285 q 0 290 3 292 q 6 295 10 295 l 169 292 q 173 292 176 289 q 179 286 179 282 q 179 278 176 275 q 173 272 169 272 z"},"E":{"x_min":0,"x_max":448,"ha":448,"o":"m 158 0 q 139 0 121 5 q 38 33 15 142 q 0 222 30 305 q 63 397 142 458 q 207 509 278 487 q 245 533 248 575 q 251 618 273 647 q 294 675 322 687 q 349 698 372 689 q 388 684 401 657 q 414 630 403 564 q 402 560 399 557 q 396 555 392 556 q 388 557 385 560 q 383 563 384 567 q 399 654 364 671 q 347 678 326 668 q 306 658 289 636 q 282 627 273 606 q 265 584 269 554 q 272 524 301 489 l 321 466 q 324 463 324 459 q 324 456 321 453 q 319 450 315 450 q 312 449 309 451 q 229 501 153 443 q 97 398 69 345 q 40 292 33 239 q 26 187 34 146 q 55 48 126 23 q 218 -1 335 120 l 368 154 q 371 157 375 157 q 378 157 382 155 q 385 152 385 148 q 385 144 382 141 l 349 106 q 285 40 225 14 q 190 0 158 0 z"},"s":{"x_min":0,"x_max":133,"ha":133,"o":"m -44 116 q -50 116 -54 118 q -63 121 -65 132 q -68 146 -55 171 q -41 197 -3 231 q 0 235 5 239 q 4 263 1 284 q -2 305 -4 315 q -7 340 7 355 q 21 371 35 375 q 39 377 42 375 q 46 374 47 370 q 49 366 47 363 q 46 359 42 357 q 41 357 36 354 q 32 352 26 347 q 21 342 17 335 q 14 328 15 319 q 20 295 23 255 q 64 288 95 308 q 125 329 127 330 q 131 332 135 331 q 139 331 141 327 q 143 323 142 320 q 141 316 138 313 q 135 312 101 289 q 67 266 25 230 q 26 194 16 167 q 4 141 -13 128 q -30 116 -44 116 z m -46 136 q -39 134 -26 143 q -13 151 -2 175 q 4 191 5 213 q -27 182 -38 162 q -48 142 -46 136 z"},">":{"x_min":0,"x_max":223,"ha":223,"o":"m 10 224 q 7 224 5 226 q 2 228 1 231 q 0 235 2 239 q 4 242 8 243 l 151 280 l 34 337 q 30 339 29 343 q 28 347 30 350 q 32 354 35 355 q 39 356 43 355 l 183 286 q 189 283 188 276 q 188 270 181 268 l 13 224 q 12 224 10 224 z"},"l":{"x_min":0,"x_max":119,"ha":119,"o":"m -41 90 q -44 90 -47 93 q -49 94 -52 99 q -55 104 -57 115 q -59 125 -57 146 q -55 167 -47 200 q -35 248 -14 308 l -5 332 q 6 362 19 393 q 58 486 83 534 q 108 583 123 600 q 138 618 146 620 q 154 622 158 620 q 163 618 164 616 q 174 606 159 567 q 148 538 125 494 q 104 452 68 401 q 33 351 12 323 q -15 251 -28 195 q -32 179 -34 166 q -36 154 -37 145 q -38 135 -38 129 q -38 122 -38 118 q -37 114 -36 112 q -36 109 -35 109 q -35 108 -34 108 q -31 105 -31 101 q -31 97 -33 94 q -37 90 -41 90 z m 148 599 q 144 595 135 583 q 126 571 112 546 q 83 495 42 399 q 83 456 108 502 q 147 583 148 599 z"},"8":{"x_min":0,"x_max":383,"ha":383,"o":"m 101 67 q 74 67 50 82 q 20 101 10 147 q 0 194 32 267 q 53 309 83 344 q 114 378 128 390 q 113 419 114 454 q 118 520 146 557 q 174 595 208 606 q 266 625 304 587 q 349 535 303 431 q 280 385 253 343 q 227 302 215 286 q 218 280 220 275 q 241 218 227 175 q 213 133 187 107 q 149 67 101 67 z m 138 372 q 122 358 95 326 q 67 295 50 259 q 21 194 29 154 q 36 114 61 99 q 86 82 117 88 q 148 94 173 120 q 233 187 202 268 q 186 304 162 336 q 149 354 138 372 z m 244 593 q 230 593 215 588 q 186 578 162 545 q 137 512 133 453 q 133 423 146 398 q 159 372 178 347 q 192 327 205 306 q 219 326 243 363 q 266 400 285 439 q 326 531 290 574 q 271 593 244 593 z"},"\\":{"x_min":0,"x_max":345,"ha":345,"o":"m 264 24 l 264 24 q 259 25 256 30 l -11 586 q -12 590 -11 594 q -10 597 -6 599 q -2 601 2 600 q 5 599 7 595 l 273 39 q 275 35 274 31 q 272 27 269 25 q 266 24 264 24 z"},"e":{"x_min":0,"x_max":165,"ha":165,"o":"m 20 206 q -21 207 -29 245 q -34 277 -16 313 q 4 352 35 362 q 49 366 59 361 q 68 356 71 347 q 75 334 69 320 q 62 307 47 301 q 39 298 30 299 q 21 300 13 302 q 6 305 2 306 q -14 275 -10 249 q -5 224 23 226 q 89 229 157 326 q 160 330 163 330 q 167 331 170 329 q 174 326 175 322 q 175 318 173 315 q 149 279 112 245 q 75 211 25 206 q 22 206 20 206 z m 14 323 q 21 321 28 320 q 36 318 41 319 q 48 322 51 329 q 54 335 52 340 q 52 341 51 343 q 50 344 48 344 q 45 345 41 343 q 25 338 14 323 z"},"b":{"x_min":0,"x_max":165,"ha":165,"o":"m -53 192 q -55 192 -57 193 q -61 195 -62 198 q -63 202 -62 206 q -60 211 -43 250 q -27 290 -2 348 q -2 348 -2 348 q 31 426 67 504 q 102 582 126 625 q 149 667 166 665 q 168 665 172 663 q 176 661 179 654 q 188 625 170 582 q 152 539 126 500 q 92 447 58 398 q 23 350 16 339 q 10 326 4 313 q 20 333 33 345 q 52 361 66 364 q 79 366 87 363 q 104 355 107 331 q 109 305 93 274 q 77 243 43 220 q 20 207 -1 210 q -22 214 -32 220 q -43 199 -44 197 q -48 192 -53 192 z m -22 237 q -15 233 1 230 q 16 227 32 236 q 62 256 75 282 q 89 309 87 329 q 87 332 86 337 q 84 342 80 345 q 68 349 45 330 q 30 316 11 289 q -7 263 -22 237 z m 162 644 q 157 640 143 616 q 107 550 53 426 q 83 467 110 510 q 169 605 162 644 z"},"%":{"x_min":0,"x_max":362,"ha":362,"o":"m 10 67 q 8 67 5 68 q 1 71 1 74 q 0 78 2 82 l 310 562 q 312 566 315 567 q 319 567 323 565 q 326 563 327 559 q 328 555 326 552 l 19 71 q 15 67 10 67 z m 110 436 q 92 436 79 449 q 66 463 66 483 q 66 502 79 516 q 92 530 110 530 q 128 530 141 516 q 154 502 154 483 q 154 463 141 449 q 128 436 110 436 z m 110 510 q 100 510 93 502 q 86 494 86 483 q 86 471 93 463 q 100 455 110 455 q 121 455 128 463 q 135 471 135 483 q 135 494 128 502 q 121 510 110 510 z m 182 80 q 164 80 151 94 q 138 107 138 127 q 138 146 151 160 q 164 174 182 174 q 200 174 213 160 q 226 146 226 127 q 226 107 213 94 q 200 80 182 80 z m 182 155 q 171 155 164 147 q 157 139 157 127 q 157 116 164 108 q 171 100 182 100 q 192 100 199 108 q 206 116 206 127 q 206 139 199 147 q 192 155 182 155 z"},"m":{"x_min":0,"x_max":282,"ha":282,"o":"m -53 174 q -56 174 -59 176 q -63 180 -63 185 q -63 190 -61 196 q -58 204 -53 219 q -43 243 -26 284 q -11 320 0 348 q 12 375 13 377 q 15 381 18 382 q 22 384 26 382 q 30 380 31 377 q 33 373 31 369 q 5 310 -16 257 q 15 307 40 340 q 58 363 69 368 q 81 373 87 368 q 100 360 93 341 q 62 266 57 237 q 63 246 72 258 q 80 270 87 282 q 106 313 119 327 q 131 342 142 339 q 147 337 150 333 q 153 329 154 325 q 154 320 154 318 q 156 292 160 277 q 165 262 170 253 q 172 250 173 249 q 175 248 176 248 q 188 248 207 263 q 227 279 246 298 q 266 318 276 329 q 279 332 283 332 q 287 333 290 330 q 293 327 293 323 q 293 319 291 316 q 245 267 218 246 q 190 226 174 229 q 169 229 163 232 q 158 235 153 243 q 146 254 142 271 q 137 287 135 316 q 128 309 120 296 q 111 283 104 271 q 74 222 58 212 q 51 209 47 211 q 43 212 41 214 q 40 215 38 218 q 36 221 36 229 q 37 236 40 251 q 43 265 52 289 q 60 312 75 348 q 68 345 55 328 q 42 312 26 287 q 10 263 -5 237 q -33 193 -44 179 q -49 174 -53 174 z"},"#":{"x_min":0,"x_max":372,"ha":372,"o":"m 86 249 q 107 293 130 340 l 53 342 q 49 342 46 345 q 43 348 43 353 q 44 356 47 359 q 49 362 54 362 l 140 359 q 164 405 190 454 q 192 457 196 458 q 200 459 203 457 q 207 455 208 451 q 209 448 207 444 q 183 400 162 359 l 240 356 l 275 437 q 277 441 281 442 q 284 444 288 442 q 292 440 293 437 q 295 433 293 429 l 260 356 l 328 354 q 333 354 335 351 q 338 348 338 344 q 337 340 335 337 q 332 334 328 334 l 252 336 l 212 246 l 271 245 q 274 245 277 242 q 280 239 280 235 q 280 231 277 228 q 274 225 270 225 l 203 227 l 162 134 q 159 128 153 128 q 151 128 149 129 q 146 131 144 135 q 143 138 145 142 l 182 227 l 99 229 q 79 183 61 139 q 58 133 52 133 q 50 133 48 134 q 44 136 43 139 q 42 143 43 147 q 59 187 78 230 l 10 231 q 5 231 3 234 q 0 237 0 241 q 0 246 3 248 q 6 251 10 251 z m 152 339 q 128 293 108 249 l 191 247 l 231 337 z"},",":{"x_min":0,"x_max":61,"ha":61,"o":"m 10 195 q 7 195 4 196 q 1 199 1 203 q 0 207 2 210 q 5 214 6 220 q 7 226 7 229 q 7 233 10 236 q 13 239 17 239 q 21 239 23 236 q 26 233 26 229 q 26 228 26 223 q 26 218 24 211 q 22 205 18 199 q 15 195 10 195 z"},"n":{"x_min":0,"x_max":229,"ha":229,"o":"m -58 173 q -60 173 -62 174 q -66 176 -67 180 q -68 183 -67 187 l 15 375 q 17 378 20 380 q 24 381 28 380 q 32 378 33 375 q 35 371 33 367 l -2 286 q 15 311 30 324 q 47 341 59 347 q 70 354 77 355 q 83 355 87 354 q 91 352 95 348 q 99 343 99 333 q 99 330 98 325 q 97 311 99 290 q 100 269 110 259 q 110 259 112 258 q 114 257 117 256 q 120 256 125 257 q 142 262 159 272 q 176 283 190 295 q 205 308 213 317 q 222 326 223 326 q 226 329 229 329 q 233 330 236 327 q 239 324 240 320 q 240 316 237 313 q 235 311 219 295 q 203 280 179 263 q 155 246 130 238 q 118 236 110 238 q 102 240 98 244 q 83 258 80 282 q 78 307 79 325 q 79 325 79 326 q 79 330 79 333 q 79 334 79 335 q 77 335 68 330 q 60 325 43 310 q 31 298 15 277 q 0 256 -15 233 q -30 211 -39 195 q -49 179 -50 178 q -53 173 -58 173 z"},"h":{"x_min":0,"x_max":212,"ha":212,"o":"m -58 179 q -60 179 -62 180 q -66 182 -67 185 q -68 189 -67 192 q -66 195 -49 235 q -31 275 -5 334 q 21 394 46 453 q 72 513 91 554 q 129 639 162 643 q 173 643 180 633 q 196 597 143 508 q 126 482 98 444 q 70 405 45 372 q 21 339 15 331 q 6 312 -2 293 q 26 332 51 354 q 58 359 66 363 q 75 367 83 363 q 93 357 94 341 q 95 325 93 302 q 92 292 91 279 q 90 267 91 256 q 92 246 97 243 q 97 243 99 243 q 101 243 104 244 q 108 245 115 248 q 121 251 130 257 q 150 272 167 288 q 183 304 193 315 q 204 326 204 327 q 207 330 211 330 q 215 331 218 328 q 221 325 221 321 q 222 317 219 314 q 218 313 208 301 q 197 290 179 273 q 162 257 141 242 q 129 232 115 226 q 100 220 87 227 q 73 235 72 257 q 70 279 73 304 q 74 315 75 327 q 75 339 74 345 q 72 345 63 338 q 46 324 27 299 q 8 274 -10 248 q -27 222 -38 204 q -49 185 -49 184 q -53 179 -58 179 z m 163 624 q 159 624 144 608 q 130 592 108 546 q 84 491 48 409 q 70 438 92 469 q 113 499 126 519 q 155 567 161 593 q 167 619 163 624 z"},"z":{"x_min":0,"x_max":160,"ha":160,"o":"m -36 60 q -45 60 -49 64 q -73 83 -47 134 q -19 182 39 232 q 35 247 29 257 q 22 267 17 272 q 12 278 12 278 q 8 280 8 285 q 7 290 11 292 q 35 315 52 336 q 70 356 75 366 q 68 366 40 342 q 26 332 17 323 q 8 314 8 313 q 8 313 8 313 q 5 310 1 310 q -3 310 -6 313 q -9 316 -9 320 q -9 324 -6 327 q -5 328 5 337 q 15 347 29 359 q 72 396 89 384 q 95 380 96 373 q 98 367 91 354 q 84 342 60 315 q 43 296 32 286 q 41 277 50 259 q 53 253 55 247 q 111 293 154 324 q 158 326 162 325 q 166 325 168 321 q 170 318 170 314 q 169 310 166 308 q 125 279 60 225 q 64 198 52 161 q 38 124 17 97 q -1 75 -14 68 q -27 60 -36 60 z m 42 208 q -6 165 -30 125 q -41 105 -41 94 q -42 83 -38 80 q -35 78 -25 84 q -15 89 1 109 q 21 134 33 168 q 42 190 42 208 z"},"B":{"x_min":0,"x_max":632,"ha":632,"o":"m 240 310 q 197 218 159 120 q 156 114 150 114 q 148 114 146 115 q 143 116 141 120 q 139 124 141 127 q 177 220 217 307 q 208 306 200 304 q 134 286 93 244 q 52 202 40 157 q 21 89 62 46 q 91 19 128 11 q 165 3 196 5 q 274 10 351 45 q 428 81 472 131 q 495 160 510 191 q 379 310 256 310 q 248 310 240 310 z m 227 328 q 299 481 385 616 q 387 619 391 620 q 395 621 398 619 q 402 616 403 613 q 403 609 401 605 q 319 476 250 330 q 307 331 367 308 q 443 278 518 211 q 544 289 514 351 q 475 420 378 412 q 375 412 370 411 q 364 410 359 409 q 354 408 350 407 q 348 406 345 406 q 342 406 339 408 q 336 409 335 414 q 334 415 334 417 q 334 419 336 422 q 338 424 343 426 q 433 461 475 513 q 517 564 508 607 q 494 662 406 655 q 303 644 203 574 q 103 504 49 405 q 47 401 43 400 q 40 399 36 400 q 32 403 31 406 q 30 410 32 414 q 84 512 188 587 q 296 664 405 675 q 508 682 527 612 q 537 560 492 503 q 468 470 404 433 q 442 432 472 417 q 511 398 531 360 q 567 286 533 197 q 549 181 565 163 q 568 160 568 156 q 568 152 565 149 q 562 146 558 147 q 554 147 551 150 q 538 165 524 177 q 510 147 486 119 q 440 65 359 28 q 278 -9 197 -15 l 182 -15 q 97 -15 49 32 q 0 83 21 162 q 37 217 82 260 q 130 307 196 323 q 211 327 227 328 z"},"K":{"x_min":0,"x_max":496,"ha":496,"o":"m 74 195 l 20 62 q 17 56 11 56 q 9 56 7 57 q 3 59 1 62 q 0 65 1 69 l 58 207 q 52 208 48 208 q 44 207 44 207 q 40 205 37 207 q 33 208 31 211 q 30 215 31 219 q 32 222 36 224 q 39 226 42 227 q 51 229 72 240 l 253 683 q 254 687 258 688 q 262 689 266 688 q 270 686 271 683 q 272 679 271 675 l 98 254 q 107 259 117 265 q 176 296 273 364 q 350 420 420 496 q 491 573 536 632 q 582 691 584 695 q 587 699 591 699 q 595 700 598 698 q 602 695 602 691 q 603 688 601 684 q 598 680 552 620 q 505 560 434 482 q 362 405 285 348 q 208 294 155 264 q 113 239 87 226 l 82 214 q 103 197 128 167 q 161 127 208 87 q 254 46 318 26 q 382 5 468 27 q 472 28 476 26 q 479 24 480 20 q 481 16 479 13 q 478 9 473 8 q 429 -4 388 -4 q 315 -4 250 34 q 206 60 173 92 q 140 124 114 153 q 93 177 76 193 z"},"R":{"x_min":0,"x_max":533,"ha":533,"o":"m 139 146 q 170 151 213 163 q 201 173 186 179 q 171 184 151 184 q 145 163 139 146 z m 117 142 q 123 161 130 183 q 125 183 119 182 q 61 173 43 163 q 30 157 26 153 q 21 148 22 147 q 22 146 27 144 q 32 141 44 139 q 56 137 77 138 q 92 138 117 142 z m 156 203 q 175 202 189 198 q 217 188 235 169 l 247 173 q 322 198 387 260 q 453 323 486 400 q 503 439 507 494 q 511 548 482 608 q 447 671 362 674 q 298 675 223 635 q 147 594 95 506 q 92 503 89 502 q 85 501 81 503 q 78 505 77 509 q 76 512 78 516 q 125 597 203 645 q 280 693 362 693 q 459 690 499 617 q 553 514 504 393 q 470 311 398 243 q 328 179 253 154 l 250 153 q 258 143 267 132 q 285 108 312 82 q 338 56 383 33 q 428 11 502 -1 q 507 -2 509 -6 q 511 -9 511 -13 q 510 -17 507 -19 q 504 -21 501 -21 l 500 -21 q 421 -7 374 16 q 327 40 299 67 q 271 94 251 120 q 240 135 229 147 q 174 131 132 124 l 116 70 l 88 -26 q 85 -33 79 -33 l 76 -33 q 72 -32 70 -28 q 68 -25 69 -21 l 98 76 q 103 94 111 121 q 94 119 80 119 q 23 117 8 133 q 0 142 3 154 q 18 187 116 201 q 126 203 136 203 q 160 282 187 369 q 215 460 236 527 q 257 595 260 604 l 260 605 q 261 609 265 611 q 268 612 272 611 q 276 610 278 606 q 280 603 279 599 q 277 594 257 528 q 236 461 208 369 q 181 282 156 203 z"},"T":{"x_min":0,"x_max":350,"ha":350,"o":"m 110 20 q 108 20 106 20 q 103 21 101 25 q 100 29 101 33 l 335 642 q 330 642 325 643 q 260 647 174 651 q 75 655 40 652 q 31 651 26 650 q 21 649 20 648 q 18 646 17 646 q 14 643 10 643 q 6 643 3 646 q 0 648 0 652 q 0 656 3 659 q 6 663 12 666 q 19 669 35 671 q 51 672 84 673 q 117 673 174 671 q 261 667 326 662 q 414 654 496 655 q 579 656 693 678 q 697 679 700 677 q 704 675 705 671 q 705 667 703 663 q 701 660 697 659 q 590 638 512 636 q 435 634 355 640 l 119 26 q 116 20 110 20 z"},"P":{"x_min":0,"x_max":493,"ha":493,"o":"m 108 134 q 104 119 101 107 l 72 11 q 69 3 63 3 q 62 3 60 4 q 56 5 54 9 q 53 12 54 16 l 82 113 q 84 123 88 135 q 67 136 54 143 q 35 151 26 160 q 0 188 14 230 q 24 261 60 289 q 93 315 146 325 q 158 364 171 406 q 199 497 220 564 q 241 632 244 641 l 244 642 q 246 646 249 648 q 252 649 256 648 q 260 647 262 644 q 264 640 263 636 q 261 631 241 565 q 220 499 192 406 q 179 365 167 327 q 197 329 227 325 q 265 321 292 314 q 318 308 322 307 q 326 305 327 302 q 329 298 328 294 q 327 291 323 289 q 320 287 316 288 q 314 289 289 295 q 263 301 227 306 q 193 310 161 307 q 149 267 138 229 l 114 153 q 116 153 118 154 q 153 155 211 172 q 286 197 352 260 q 417 322 450 400 q 468 439 472 494 q 476 548 446 607 q 412 671 327 673 q 262 675 187 634 q 112 593 59 506 q 57 502 53 501 q 49 500 45 502 q 42 505 41 509 q 40 512 42 516 q 89 597 167 645 q 245 693 327 693 q 423 690 463 617 q 517 514 468 393 q 434 311 362 243 q 292 178 217 154 q 149 133 108 134 z m 94 154 q 104 186 118 232 q 128 267 139 303 q 99 294 72 274 q 41 250 32 224 q 22 193 41 174 q 46 167 64 160 q 76 155 94 154 z"},"|":{"x_min":0,"x_max":495,"ha":495,"o":"m 208 770 l 287 770 l 287 -204 l 208 -204 z"},"t":{"x_min":0,"x_max":104,"ha":104,"o":"m -108 -53 q -112 -53 -115 -50 q -117 -47 -117 -43 q -114 18 -76 130 q -39 243 13 367 q 64 491 108 587 q 110 590 114 592 q 117 593 121 592 q 125 590 126 586 q 127 583 125 579 q 90 500 39 377 q -13 254 -53 137 q -94 19 -98 -43 q -98 -48 -101 -51 q -104 -53 -107 -53 q -108 -53 -108 -53 z m 268 434 q 267 434 267 434 l -127 445 q -131 445 -134 448 q -137 451 -137 455 q -136 459 -134 462 q -131 464 -126 464 l 268 453 q 272 453 275 450 q 277 447 277 443 q 277 439 274 436 q 271 434 268 434 z"},"M":{"x_min":0,"x_max":518,"ha":518,"o":"m 340 -35 q 340 -35 340 -35 q 336 -35 333 -32 q 331 -29 331 -24 q 330 -21 338 39 q 346 98 373 204 q 403 308 458 455 q 488 537 511 606 q 535 676 535 697 q 535 704 534 705 q 531 705 521 697 q 510 688 492 667 q 457 625 422 564 q 387 501 325 383 q 260 259 216 178 q 172 98 156 81 q 152 77 149 76 q 146 75 143 76 q 141 77 140 77 q 129 83 137 115 q 141 137 152 179 q 174 261 204 361 q 224 433 241 493 q 257 553 257 564 q 257 576 256 579 q 253 577 246 568 q 238 560 223 538 q 208 517 185 477 q 154 422 123 353 q 92 284 67 225 q 27 128 19 121 q 12 116 5 119 q 0 123 1 130 q 2 138 7 155 q 14 177 27 218 q 49 287 90 407 q 125 509 153 589 q 181 668 185 678 q 185 679 185 679 q 186 683 190 684 q 193 686 197 685 q 201 683 203 680 q 205 676 203 672 q 169 575 131 464 q 92 353 62 263 q 111 382 168 487 q 203 546 224 573 q 248 603 262 598 q 270 596 273 590 q 276 583 276 576 q 277 569 277 564 q 277 551 262 498 q 248 444 222 356 q 203 291 184 222 q 165 154 157 115 q 182 155 224 234 q 266 312 308 393 q 370 511 405 574 q 442 638 479 681 q 497 703 509 712 q 521 722 528 724 q 536 726 540 724 q 545 723 550 717 q 555 711 555 697 q 555 673 532 605 q 509 538 477 448 q 422 302 392 199 q 365 94 357 35 q 350 -24 350 -25 q 350 -30 347 -32 q 344 -35 340 -35 z"},"g":{"x_min":0,"x_max":208,"ha":208,"o":"m -154 -99 q -164 -99 -170 -94 q -179 -89 -182 -74 q -186 -59 -174 -28 q -160 10 -117 69 q -74 128 -1 193 q 37 226 73 251 q 83 274 92 295 q 49 247 18 221 q -23 185 -43 192 q -48 193 -53 198 q -58 203 -59 214 q -60 246 -33 291 q -6 336 28 356 q 61 372 85 351 q 88 348 89 344 q 89 340 86 337 q 83 333 79 333 q 75 333 72 336 q 58 349 37 339 q 7 321 -16 281 q -40 240 -39 216 q -39 211 -38 210 q -38 210 -36 210 q -34 210 -31 212 q -27 213 -21 216 q -15 219 -7 226 q 2 232 13 242 q 25 253 40 268 q 55 283 74 305 q 93 326 116 354 q 119 357 122 357 q 125 358 129 356 q 132 354 133 351 q 134 348 133 344 q 120 312 104 272 q 147 301 175 316 q 203 331 204 331 q 208 333 211 332 q 215 330 217 327 q 219 323 217 319 q 216 315 212 313 q 210 313 176 294 q 141 275 89 239 q 54 156 7 72 q -40 -12 -96 -67 q -128 -98 -154 -99 z m 58 216 q 35 198 12 178 q -59 115 -100 58 q -142 1 -156 -35 q -169 -72 -160 -78 q -155 -81 -141 -76 q -128 -71 -109 -53 q -61 -6 -18 67 q 24 141 58 216 z"},"j":{"x_min":0,"x_max":100,"ha":100,"o":"m -272 -106 q -278 -106 -283 -104 q -288 -101 -292 -94 q -297 -88 -299 -75 q -303 -39 -269 21 q -235 80 -158 149 q -103 197 -42 241 q -13 306 5 354 q 7 357 10 359 q 14 360 18 359 q 22 357 23 354 q 25 350 23 346 q 9 310 -11 262 q 33 293 62 312 q 92 332 93 333 q 97 334 101 334 q 104 333 107 330 q 109 326 108 322 q 107 318 104 316 q 102 314 64 290 q 27 266 -26 228 q -66 134 -121 43 q -175 -48 -240 -94 q -259 -106 -272 -106 z m -58 205 q -104 170 -146 134 q -228 60 -256 5 q -283 -50 -279 -73 q -278 -83 -273 -86 q -273 -86 -272 -87 q -271 -87 -270 -87 q -269 -86 -266 -85 q -263 -84 -259 -83 q -255 -81 -250 -77 q -194 -38 -145 40 q -96 119 -58 205 z m 30 391 q 28 391 26 392 q 23 394 21 397 q 20 401 21 405 l 28 419 q 30 423 33 425 q 37 426 41 424 q 44 423 46 419 q 47 416 46 412 l 40 397 q 36 391 30 391 z"},"i":{"x_min":0,"x_max":126,"ha":126,"o":"m -14 209 q -22 209 -29 214 q -37 221 -38 231 q -39 241 -37 250 q -36 260 -34 265 q -23 301 12 363 q 14 367 18 368 q 21 369 25 367 q 28 365 30 361 q 31 357 29 354 q 20 337 12 323 q 5 310 0 298 q -5 287 -8 278 q -12 270 -14 262 q -16 255 -17 250 q -19 245 -19 241 q -19 238 -19 236 q -19 233 -18 232 q -18 231 -17 230 q -17 229 -17 229 q -17 229 -16 229 q -16 229 -14 229 q -13 229 -11 229 q -8 229 -5 230 q -1 231 3 234 q 8 236 14 239 q 20 243 28 248 q 68 275 119 327 q 122 330 125 330 q 129 330 133 327 q 136 324 136 320 q 136 316 133 313 q 116 295 89 271 q 62 248 35 229 q 7 210 -14 209 z m 42 396 q 40 396 38 397 q 34 399 32 403 q 31 407 33 411 l 40 424 q 42 427 46 428 q 49 430 53 428 q 57 426 58 422 q 59 418 57 415 l 51 402 q 47 396 42 396 z"},"y":{"x_min":0,"x_max":184,"ha":184,"o":"m -128 -90 q -130 -90 -133 -90 q -152 -87 -160 -68 q -177 -15 -100 79 q -23 166 59 234 q 64 248 70 261 q 54 241 36 226 q 19 211 0 207 q -11 204 -18 207 q -25 209 -28 214 q -31 218 -33 226 q -35 234 -32 250 q -29 267 -18 294 q -9 315 -1 331 q 6 346 7 348 q 9 351 13 352 q 17 354 20 352 q 24 350 25 346 q 26 342 24 338 q 24 337 16 322 q 9 307 0 286 q -6 271 -9 261 q -12 251 -13 244 q -14 237 -14 233 q -14 229 -13 228 q -13 226 -12 226 q -11 224 -4 226 q 18 232 42 258 q 65 283 84 312 q 103 342 112 360 q 114 363 118 365 q 122 366 125 364 q 129 362 130 359 q 131 355 130 352 q 128 348 118 323 q 108 299 92 262 q 130 292 154 310 q 177 328 179 328 q 182 331 186 330 q 190 329 192 326 q 195 322 194 319 q 193 315 190 312 q 188 311 156 287 q 124 263 75 222 q 42 146 6 72 q -30 -3 -55 -39 q -94 -90 -128 -90 z m 40 192 q -26 134 -85 66 q -122 21 -135 -12 q -147 -45 -141 -61 q -138 -69 -130 -70 q -122 -72 -106 -62 q -90 -52 -70 -27 q -50 2 -20 63 q 10 124 40 192 z"},"@":{"x_min":0,"x_max":419,"ha":419,"o":"m 132 49 q 92 51 71 72 q 25 115 22 201 q 20 286 60 372 q 91 433 143 474 q 196 515 253 524 q 304 531 336 508 q 366 487 376 445 q 391 382 366 307 q 338 232 291 212 q 264 202 249 216 q 239 225 236 240 q 233 255 234 271 q 225 259 210 242 q 155 173 126 195 q 107 213 115 255 q 122 297 146 332 q 196 400 262 359 q 265 357 266 353 q 267 349 264 346 q 262 342 258 342 q 254 341 251 343 q 220 362 198 352 q 175 341 162 321 q 140 288 135 254 q 129 220 138 210 q 142 207 156 215 q 170 223 195 254 q 221 285 230 299 q 240 313 241 316 q 242 318 242 319 q 244 324 249 326 q 253 327 257 324 q 261 322 261 317 q 261 316 261 315 q 261 313 260 310 q 254 287 254 263 q 253 240 261 230 q 268 224 284 230 q 325 250 348 315 q 371 379 357 440 q 352 468 329 489 q 306 510 255 505 q 203 497 155 458 q 106 420 78 364 q 41 285 42 205 q 44 125 84 86 q 133 44 220 102 q 223 104 227 103 q 231 102 233 99 q 235 95 235 91 q 234 87 230 85 q 170 47 132 49 z"},".":{"x_min":0,"x_max":69,"ha":69,"o":"m 48 226 q 48 220 44 216 q 40 211 34 211 q 28 211 24 216 q 20 220 20 226 q 20 231 24 236 q 28 240 34 240 q 40 240 44 236 q 48 231 48 226 z"},"p":{"x_min":0,"x_max":178,"ha":178,"o":"m -109 -6 q -111 -6 -113 -5 q -117 -3 -119 0 q -121 3 -119 7 q -117 15 -111 28 l 7 355 q 9 359 12 361 q 16 362 20 361 q 23 359 25 356 q 27 352 25 348 l 0 279 q 43 352 76 364 q 92 370 106 363 q 117 356 122 339 q 125 326 123 306 q 121 287 109 267 q 97 248 75 231 q 54 214 29 209 q 7 207 -10 218 q -58 119 -92 24 l -101 0 q -104 -5 -109 -6 z m -1 235 q 11 227 26 229 q 46 232 64 247 q 82 261 92 277 q 102 293 104 309 q 105 324 103 334 q 101 340 99 343 q 98 345 97 346 q 90 349 83 346 q 64 338 43 309 q 21 279 -1 235 z"},"X":{"x_min":0,"x_max":602,"ha":602,"o":"m 403 326 q 413 248 426 185 q 447 84 465 23 q 483 -38 484 -40 q 486 -44 484 -48 q 482 -51 479 -53 q 477 -53 476 -53 q 469 -53 466 -46 q 465 -44 447 18 q 429 79 407 181 q 395 237 386 305 q 281 181 201 103 q 115 19 66 -19 q 18 -58 16 -58 q 13 -59 11 -59 q 6 -59 2 -55 q 0 -51 1 -48 q 2 -44 5 -42 q 7 -42 55 -4 q 103 34 188 117 q 272 199 382 332 q 377 367 374 404 q 361 533 372 669 q 373 673 375 676 q 378 678 383 678 q 387 677 389 674 q 392 671 392 667 q 380 533 394 406 q 396 378 399 353 q 503 476 587 557 q 676 644 728 685 q 780 726 782 726 q 785 729 789 728 q 793 727 795 724 q 798 720 797 716 q 796 712 793 710 q 791 709 740 669 q 688 628 600 543 q 513 458 403 326 z"},"*":{"x_min":0,"x_max":321,"ha":321,"o":"m 137 632 q 135 667 119 695 q 101 728 101 736 q 101 752 112 761 q 124 771 143 771 q 161 771 173 762 q 185 753 185 739 q 185 729 167 696 q 151 666 149 632 q 181 645 204 669 q 229 696 238 699 q 243 700 248 700 q 257 700 265 695 q 278 687 284 669 q 287 660 287 652 q 287 645 285 638 q 280 624 266 620 q 263 619 257 619 q 245 619 220 623 q 206 625 193 625 q 173 625 153 620 q 175 593 205 580 q 238 564 243 557 q 250 548 250 538 q 250 534 249 530 q 245 515 229 504 q 215 493 201 493 q 200 493 200 494 q 185 494 177 505 q 171 513 166 551 q 161 583 143 612 q 125 583 121 551 q 116 515 111 507 q 102 495 87 494 l 84 494 q 71 494 57 504 q 42 515 38 529 q 36 534 36 539 q 36 547 41 555 q 47 563 82 580 q 111 594 133 620 q 113 625 94 625 q 81 625 68 623 q 42 617 30 617 q 25 617 23 618 q 8 623 3 637 q 0 643 0 651 q 0 659 3 668 q 8 686 21 694 q 29 700 37 700 q 42 700 46 699 q 56 696 82 668 q 105 645 137 632 z"},"Y":{"x_min":0,"x_max":518,"ha":518,"o":"m 76 -43 q 52 -43 36 -35 q 20 -26 11 -18 q 3 -9 2 -8 q 0 -4 0 0 q 1 3 4 6 q 8 8 12 8 q 16 7 18 3 q 19 2 26 -5 q 33 -12 47 -18 q 61 -24 82 -23 q 239 -13 371 228 q 413 305 446 387 q 479 470 503 545 q 473 485 432 416 q 391 347 344 285 q 289 212 228 178 q 167 145 127 166 q 113 172 101 194 q 89 216 92 261 q 94 306 122 383 q 146 449 174 515 q 203 581 223 625 q 243 670 245 673 q 247 676 250 678 q 254 679 258 677 q 261 676 263 672 q 264 668 262 665 q 261 662 241 617 q 220 573 192 507 q 164 441 140 376 q 111 299 111 249 q 110 198 137 183 q 165 167 217 195 q 270 222 328 297 q 387 376 437 464 q 486 551 516 613 q 546 675 547 679 q 549 683 552 684 q 556 685 560 684 q 563 683 565 679 q 566 676 565 672 q 560 654 553 635 l 553 634 q 525 545 484 433 q 443 321 386 215 q 330 109 254 38 q 179 -34 83 -43 q 79 -43 76 -43 z"},"c":{"x_min":0,"x_max":133,"ha":133,"o":"m -15 196 q -22 196 -28 198 q -49 208 -44 247 q -38 286 -14 320 q 10 353 34 363 q 44 367 50 365 q 57 364 60 361 q 74 349 66 310 q 65 305 62 303 q 59 301 55 302 q 50 303 48 306 q 46 309 47 313 q 48 321 49 327 q 49 333 49 337 q 49 340 48 342 q 48 344 47 345 q 47 346 47 346 q 46 347 41 345 q 23 337 2 309 q -19 280 -24 245 q -27 220 -20 216 q -14 213 2 220 q 18 226 44 246 q 88 279 125 322 q 127 325 131 325 q 135 326 139 323 q 142 320 142 316 q 142 312 140 309 q 101 265 56 230 q 10 196 -15 196 z"},"!":{"x_min":0,"x_max":263,"ha":263,"o":"m 30 97 q 28 97 26 98 q 22 100 21 103 q 19 107 21 111 l 209 535 q 211 539 215 540 q 218 542 222 540 q 226 538 228 534 q 229 531 227 527 l 39 103 q 35 97 30 97 z m 11 50 q 9 50 7 51 q 3 53 1 56 q 0 60 1 63 l 8 80 q 9 83 13 85 q 17 86 21 85 q 24 83 26 80 q 27 76 26 72 l 20 57 q 16 50 11 50 z"},"/":{"x_min":0,"x_max":345,"ha":345,"o":"m 0 24 q -3 24 -6 25 q -10 27 -11 31 q -12 35 -11 39 l 256 595 q 258 599 261 600 q 265 601 269 599 q 272 597 274 594 q 275 590 273 586 l 7 30 q 4 25 0 24 z"},"[":{"x_min":0,"x_max":255,"ha":255,"o":"m 31 74 q 19 74 9 76 q 3 77 1 83 q 0 83 0 86 q 0 88 1 94 q 1 100 4 110 q 6 121 11 139 q 16 157 24 184 q 32 210 44 248 q 56 286 73 336 q 87 378 105 432 q 124 486 138 528 q 153 569 156 575 q 157 576 159 577 q 161 579 167 580 q 172 582 183 581 q 194 581 212 578 q 216 578 219 574 q 221 571 220 567 q 220 563 217 561 q 213 559 209 559 q 197 561 187 561 q 176 562 171 562 q 165 545 143 481 q 121 417 92 331 q 22 119 20 94 q 30 93 41 94 q 52 94 59 95 q 62 95 65 93 q 68 90 69 86 q 69 82 67 79 q 64 76 60 76 q 58 75 50 75 q 41 74 31 74 z m 169 561 l 169 561 l 169 561 z"},"6":{"x_min":0,"x_max":312,"ha":312,"o":"m 106 64 q 70 64 42 84 q 7 110 1 150 q 0 151 0 152 q 0 157 0 162 q 0 283 79 410 q 153 527 263 596 q 266 598 270 597 q 273 596 276 593 q 278 589 277 585 q 276 582 273 579 q 213 542 158 482 q 104 422 66 348 q 29 274 21 193 q 56 249 112 286 q 173 321 218 294 q 264 262 259 195 q 247 109 159 75 q 131 64 106 64 z m 21 151 q 26 120 54 100 q 95 72 152 93 q 229 124 239 197 q 244 252 208 277 q 173 299 123 269 q 88 248 60 214 q 32 181 21 151 z"},"r":{"x_min":0,"x_max":165,"ha":165,"o":"m 11 369 l 12 372 q 14 375 17 376 q 21 377 24 376 q 28 375 30 371 q 31 369 31 366 l 31 365 q 30 364 30 364 l 6 302 q 22 326 32 338 q 42 351 49 355 q 56 359 61 359 q 69 359 74 352 l 74 351 q 87 330 98 320 q 108 310 124 314 q 144 320 151 323 q 159 327 159 327 q 167 331 171 323 q 175 314 170 311 q 169 310 160 306 q 151 302 129 295 q 122 293 115 293 q 96 294 83 307 q 70 321 60 338 q 56 336 42 319 q 29 302 3 258 q -15 228 -27 204 q -40 181 -40 179 q -43 174 -49 174 q -51 174 -53 175 q -57 176 -58 180 q -60 184 -58 187 z"},"2":{"x_min":0,"x_max":374,"ha":374,"o":"m 229 69 l 11 69 q 5 69 2 76 q 0 82 4 86 q 7 87 71 151 q 134 215 233 333 q 338 464 314 544 q 301 580 265 589 q 228 597 191 545 q 177 523 169 506 q 161 489 161 487 q 159 483 156 482 q 152 480 148 482 q 144 483 143 487 q 141 490 143 494 q 143 498 152 517 q 162 536 178 560 q 194 583 218 598 q 241 613 269 608 q 316 596 333 551 q 339 534 338 503 q 337 473 317 427 q 297 382 248 321 q 174 231 118 173 q 62 114 36 89 l 229 89 q 233 89 236 86 q 239 83 239 79 q 239 75 236 72 q 233 69 229 69 z"},"{":{"x_min":0,"x_max":268,"ha":268,"o":"m 32 18 q 26 18 19 23 q 11 27 6 37 q 0 47 0 63 q 0 82 10 123 q 21 164 31 202 q 42 240 47 254 q 51 269 49 279 q 46 290 40 297 q 35 304 30 308 q 24 312 24 312 q 19 315 19 321 q 19 327 24 329 q 25 330 33 334 q 42 339 53 348 q 63 356 72 369 q 78 379 89 406 q 100 433 112 464 q 127 501 140 533 q 153 565 162 580 q 178 602 197 606 q 215 610 227 606 q 230 604 232 601 q 234 597 233 593 q 231 589 228 588 q 225 586 221 587 q 219 588 212 589 q 205 589 196 585 q 187 582 179 569 q 171 556 157 524 q 144 492 130 457 q 117 424 106 397 q 95 370 88 359 q 80 345 68 335 q 56 325 46 319 q 59 309 66 291 q 73 273 66 249 q 52 204 36 144 q 20 84 20 63 q 20 54 22 49 q 24 44 27 41 q 29 39 32 38 q 34 37 35 37 l 33 27 l 32 18 z"},"9":{"x_min":0,"x_max":409,"ha":409,"o":"m 90 76 q 54 74 17 101 q 13 103 13 107 q 12 111 14 114 q 17 118 21 118 q 24 119 28 117 q 71 85 112 101 q 161 121 201 188 q 240 254 270 338 q 299 421 318 492 q 283 429 239 370 q 195 312 156 292 q 110 274 91 311 q 76 343 87 400 q 99 457 133 513 q 167 569 220 601 q 244 614 267 610 q 290 606 308 595 q 327 583 337 573 q 340 581 343 587 q 345 591 348 592 q 351 594 355 593 q 359 591 361 588 q 362 585 361 581 q 358 570 354 554 q 342 504 321 432 q 301 361 271 287 q 242 213 204 157 q 166 101 119 82 q 104 77 90 76 z m 253 591 q 242 590 229 584 q 162 544 123 450 q 90 364 108 319 q 111 312 120 307 q 129 303 148 310 q 176 324 210 366 q 245 408 276 460 q 308 512 329 555 q 323 561 311 569 q 300 578 285 585 q 270 592 253 591 z"}," ":{"x_min":0,"x_max":143,"ha":143,"o":""},"I":{"x_min":0,"x_max":297,"ha":297,"o":"m 76 20 q 75 19 73 19 l 72 19 l 11 13 l 10 13 q 6 13 4 16 q 1 18 0 22 q 0 26 2 29 q 5 32 9 32 l 66 38 q 74 56 104 129 q 142 219 190 340 q 232 443 257 509 q 282 574 294 609 q 306 645 310 659 q 313 673 313 676 q 313 677 312 677 q 312 678 312 678 q 305 681 280 661 q 255 642 214 594 q 174 546 142 494 q 109 441 93 397 q 77 352 86 328 q 88 324 86 320 q 85 316 82 315 q 78 313 74 314 q 70 316 69 320 q 51 362 97 454 q 136 531 199 607 q 215 626 236 648 q 258 670 279 685 q 300 700 316 697 q 319 697 324 693 q 329 689 332 680 q 333 679 333 676 q 333 672 331 665 q 330 657 325 642 q 321 627 313 603 q 304 579 291 542 q 277 506 258 455 q 238 404 210 336 q 161 215 123 123 q 98 63 88 40 l 134 45 q 138 45 141 43 q 144 41 145 36 q 145 32 143 29 q 140 26 136 25 z"},"H":{"x_min":0,"x_max":662,"ha":662,"o":"m 98 -33 l 98 -33 l 98 -33 z m 261 377 q 230 313 202 252 q 161 164 141 112 q 125 68 116 40 q 107 12 103 -3 q 99 -19 98 -25 q 98 -32 98 -33 q 99 -36 97 -39 q 95 -42 92 -44 q 90 -44 88 -44 q 83 -44 79 -38 q 73 -17 123 119 q 143 171 184 260 q 210 318 239 377 q 211 376 184 374 q 111 368 63 359 q 15 350 13 349 q 11 349 10 349 q 7 349 4 351 q 2 353 1 356 q 0 360 2 364 q 4 367 8 368 q 11 369 60 378 q 109 387 183 394 q 215 396 249 396 q 259 419 271 442 q 315 535 348 599 q 380 664 382 668 q 384 672 388 674 q 392 675 396 673 q 399 671 400 667 q 401 664 400 660 q 397 655 365 591 q 333 526 288 434 q 279 415 270 396 q 301 396 333 393 q 437 384 519 393 q 538 434 557 475 q 609 583 646 656 q 683 729 685 734 q 687 738 691 739 q 694 740 698 738 q 702 736 703 733 q 704 729 702 725 q 700 721 663 647 q 627 574 575 467 q 558 431 542 395 q 612 404 644 415 q 648 416 651 414 q 655 412 656 408 q 657 404 656 401 q 654 397 650 396 q 614 384 532 375 q 503 312 476 251 q 428 143 403 68 q 386 14 375 -25 q 364 -63 358 -88 q 353 -113 350 -126 q 348 -140 348 -146 q 348 -151 348 -152 l 348 -151 l 329 -155 q 328 -154 328 -148 q 328 -142 330 -128 q 333 -113 338 -88 q 344 -62 355 -22 q 367 18 385 74 q 410 149 458 258 q 483 315 509 372 q 430 365 331 374 q 295 377 261 377 z"},"4":{"x_min":0,"x_max":307,"ha":307,"o":"m 182 267 q 165 266 144 265 q 113 264 84 264 q 38 264 12 268 q 4 270 1 277 q 0 281 1 288 q 2 294 10 309 q 17 323 34 348 q 62 389 114 453 q 159 509 195 551 q 230 593 233 596 q 236 599 240 599 q 244 600 247 597 q 250 594 250 590 q 250 586 248 583 q 246 581 211 540 q 177 500 132 445 q 87 389 64 356 q 40 323 31 307 q 22 291 21 286 q 38 284 70 284 q 101 284 135 285 q 166 285 188 286 l 252 508 q 254 512 257 514 q 261 516 265 515 q 269 513 271 510 q 272 506 271 502 l 209 287 q 215 287 216 287 q 221 287 224 285 q 227 282 227 278 q 227 274 224 271 q 222 268 217 268 q 215 268 203 267 l 148 80 q 145 73 139 73 q 138 73 136 73 q 132 74 130 78 q 128 81 129 85 z"},"~":{"x_min":0,"x_max":495,"ha":495,"o":"m 451 429 l 451 353 q 420 317 391 305 q 362 292 334 292 q 305 292 248 316 q 190 340 162 340 q 137 340 109 326 q 82 312 46 271 l 46 348 q 77 383 106 396 q 135 409 162 409 q 193 409 250 385 q 308 360 334 360 q 360 360 387 374 q 415 388 451 429 z"},"D":{"x_min":0,"x_max":657,"ha":657,"o":"m 188 234 q 146 230 114 214 q 72 192 49 161 q 2 94 38 40 q 67 0 136 -4 q 205 -7 301 26 q 390 58 462 144 q 409 183 341 210 q 271 235 215 235 l 208 235 q 206 229 204 222 l 153 68 q 150 61 144 61 q 142 61 141 62 q 137 63 135 66 q 133 70 134 74 l 186 229 q 187 231 188 234 z m 215 254 q 278 254 348 229 q 419 200 475 159 q 506 200 530 248 q 611 413 577 543 q 556 609 517 636 q 477 662 438 666 q 351 675 262 628 q 172 582 122 501 q 120 498 116 497 q 112 496 109 498 q 105 500 104 504 q 104 508 105 512 q 156 595 253 646 q 352 696 441 685 q 560 667 596 549 q 631 411 548 239 q 522 189 491 148 q 517 128 532 115 q 548 102 549 100 q 552 97 552 93 q 553 89 550 86 q 547 83 543 83 q 540 83 536 86 q 536 86 520 100 q 504 113 479 132 q 402 42 307 7 q 210 -25 150 -24 q 92 -22 62 -5 q 32 12 22 28 q 0 59 3 97 q 6 136 33 173 q 76 229 153 247 q 173 251 194 253 q 218 321 248 396 q 283 485 310 548 q 337 612 339 616 q 341 620 344 621 q 348 623 352 621 q 355 619 357 615 q 358 612 357 608 q 355 604 328 541 q 301 478 266 390 q 238 319 215 254 z"},"^":{"x_min":0,"x_max":495,"ha":495,"o":""},"0":{"x_min":0,"x_max":342,"ha":342,"o":"m 76 65 q 54 65 37 79 q 17 99 8 133 q 0 167 0 203 q 0 240 4 268 q 14 330 41 406 q 69 483 111 543 q 139 580 161 594 q 183 607 197 608 q 211 609 215 606 q 259 598 281 563 q 300 532 301 487 q 302 442 292 394 q 283 346 271 305 q 267 287 253 250 q 239 213 214 172 q 164 89 100 69 q 87 65 76 65 z m 203 589 q 197 589 187 585 q 176 582 161 569 q 146 557 126 531 q 83 469 57 393 q 31 316 23 265 q 17 222 21 170 q 25 119 50 94 q 67 79 94 87 q 144 105 177 152 q 211 198 229 245 q 248 292 252 311 q 304 491 264 553 q 247 581 211 587 q 210 588 210 588 q 209 588 209 588 q 208 589 203 589 z"},"F":{"x_min":0,"x_max":347,"ha":347,"o":"m 299 660 l 301 664 q 303 667 306 668 q 310 669 314 668 q 318 666 319 662 l 319 659 q 345 659 372 656 q 436 650 471 648 q 506 646 521 646 q 536 646 539 647 q 540 648 541 649 q 544 651 548 650 q 552 648 554 645 q 556 639 553 634 q 552 633 550 631 q 548 630 542 628 q 537 627 525 627 q 513 626 493 627 q 473 628 443 630 q 413 632 370 637 q 339 639 311 640 q 274 564 235 472 q 220 435 204 399 l 291 397 q 295 397 298 395 q 301 392 301 388 q 300 383 298 381 q 295 378 291 378 l 291 378 l 195 380 q 166 313 133 248 q 79 137 18 63 q 14 60 10 60 q 7 60 3 62 q 0 65 0 69 q 0 73 2 76 q 62 148 116 258 q 146 318 174 380 l 128 381 q 125 381 122 384 q 119 387 119 391 q 119 395 122 398 q 125 400 128 400 l 129 400 l 183 399 q 200 439 217 479 q 254 567 290 640 q 245 640 205 634 q 129 623 83 609 q 36 595 34 594 q 32 593 30 593 q 24 593 21 600 q 20 604 21 607 q 23 610 27 612 q 29 614 77 628 q 125 642 202 653 q 248 660 299 660 z"},"`":{"x_min":0,"x_max":500,"ha":500,"o":"m 329 527 l 295 527 l 134 625 q 119 635 111 645 q 104 655 104 666 q 104 681 114 690 q 124 700 140 700 q 149 700 159 694 q 169 688 187 671 z"},"k":{"x_min":0,"x_max":204,"ha":204,"o":"m -58 165 q -60 165 -62 166 q -65 167 -67 170 q -68 174 -67 177 q -67 177 -66 180 q -65 182 -63 188 q -61 194 -56 206 q -52 217 -44 234 q -37 251 -26 276 q -11 313 24 392 l 29 401 q 48 444 70 489 q 88 527 102 554 q 115 581 125 598 q 135 615 141 625 q 147 635 152 640 q 156 644 159 646 q 161 647 163 647 q 175 649 182 641 q 191 624 177 590 q 163 556 147 528 q 123 488 91 447 q 59 407 45 391 q 20 333 2 294 q 18 317 31 333 q 80 389 110 379 q 112 378 115 376 q 118 373 120 368 q 122 363 120 355 q 115 332 94 310 q 73 289 49 282 q 35 278 26 277 q 49 242 74 239 q 100 237 127 260 q 155 282 185 314 q 185 314 186 314 q 191 320 197 326 q 200 329 204 329 q 208 329 211 326 q 214 323 214 319 q 214 315 211 312 q 205 307 199 300 q 169 268 139 244 q 110 221 80 219 q 76 219 72 220 q 38 224 9 268 q -6 244 -20 222 q -33 200 -41 185 q -49 170 -49 169 q -53 165 -58 165 z m 100 362 q 95 362 80 353 q 66 344 46 321 q 38 311 28 298 q 35 299 44 301 q 62 306 80 323 q 97 341 101 358 q 101 361 101 362 q 101 362 100 362 z m 166 626 q 163 624 154 610 q 146 596 129 564 q 112 532 84 475 q 82 469 79 464 q 109 502 130 538 q 151 575 159 597 q 167 619 166 626 z"},"u":{"x_min":0,"x_max":218,"ha":218,"o":"m -18 207 q -19 207 -20 207 q -30 208 -34 218 q -39 237 -32 263 q -25 290 -15 312 q -5 334 -2 340 q 0 344 4 345 q 7 346 11 344 q 15 342 16 339 q 17 335 15 331 q 3 308 -8 276 q -19 245 -16 227 q -12 228 1 238 q 14 248 42 277 q 61 299 75 316 q 89 334 92 338 q 104 355 104 355 q 107 358 110 358 q 114 359 117 357 q 120 355 121 352 q 122 348 121 345 q 110 322 104 294 q 99 266 110 253 q 122 247 152 270 q 182 292 211 326 q 214 330 218 330 q 222 330 225 327 q 229 325 229 321 q 229 317 226 313 q 225 312 212 298 q 198 284 179 267 q 122 218 98 238 q 86 249 84 264 q 82 280 85 298 q 71 281 55 263 q 22 228 6 218 q -10 207 -18 207 z"},"]":{"x_min":0,"x_max":254,"ha":254,"o":"m 10 70 q 6 70 3 73 q 0 76 0 80 q 0 84 3 87 q 5 89 9 90 l 51 91 q 76 168 106 265 q 137 361 163 442 q 188 522 197 550 q 191 551 182 551 q 172 551 163 551 q 159 551 156 553 q 153 556 153 560 q 153 564 156 567 q 158 570 163 570 q 180 571 191 570 q 201 570 207 568 q 212 567 214 565 q 216 564 217 563 q 220 559 219 553 q 217 548 198 488 q 179 427 152 343 q 125 259 101 185 q 78 111 67 79 q 65 72 59 72 l 10 70 q 10 70 10 70 z"},"U":{"x_min":0,"x_max":468,"ha":468,"o":"m 297 -27 q 293 -27 290 -25 q 278 -18 280 19 q 283 63 305 153 q 325 233 360 331 q 395 429 429 517 q 379 427 318 324 q 257 222 198 140 q 139 58 96 27 q 47 -4 22 21 q -4 47 7 141 q 17 220 50 334 q 82 441 119 535 q 157 628 188 674 q 190 678 194 678 q 197 679 201 677 q 204 675 205 671 q 206 667 204 664 q 174 619 137 526 q 99 433 68 328 q 34 210 26 133 q 18 55 37 35 q 50 21 85 44 q 127 73 187 158 q 247 243 310 349 q 374 456 425 549 q 476 643 500 690 q 502 694 505 695 q 509 696 513 694 q 516 693 518 689 q 519 686 518 682 q 515 676 477 584 q 439 493 395 370 q 350 248 324 149 q 311 92 305 59 q 300 26 300 11 q 299 -3 301 -7 q 306 -7 309 -11 q 311 -14 311 -18 q 310 -22 307 -24 q 303 -27 297 -27 z m 285 -36 l 285 -36 q 285 -36 285 -36 q 285 -36 285 -36 z"},"o":{"x_min":0,"x_max":125,"ha":125,"o":"m -26 181 q -42 180 -48 188 q -61 202 -60 227 q -58 252 -47 277 q -37 299 -24 312 q -11 325 -1 331 q 9 336 10 336 q 14 337 18 335 q 21 333 22 330 q 24 326 22 322 q 21 319 17 317 q 16 317 8 313 q 0 309 -10 298 q -21 288 -29 269 q -39 247 -40 228 q -41 208 -35 202 q -31 199 -26 200 q -21 201 -16 204 q 19 222 33 266 q 45 308 29 339 l 27 342 q 25 346 27 350 q 28 354 31 355 q 35 357 38 356 q 42 355 44 352 q 45 351 46 349 q 48 344 56 336 q 63 327 81 321 q 99 315 119 325 q 123 328 126 327 q 130 326 132 323 q 135 319 134 315 q 133 312 129 309 q 102 294 83 300 q 63 307 57 310 q 60 286 52 261 q 36 208 -7 187 q -18 181 -26 181 z"},"N":{"x_min":0,"x_max":620,"ha":620,"o":"m 10 30 q 6 30 2 34 q 0 37 0 41 q 1 45 4 47 q 90 113 146 200 q 201 287 239 386 q 276 485 307 586 q 322 634 338 682 q 339 686 342 688 q 345 689 349 688 q 353 688 355 685 q 357 682 357 678 q 356 674 350 611 q 343 548 338 456 q 333 364 336 271 q 339 178 356 114 q 369 74 383 73 q 383 73 383 73 q 383 73 383 73 q 387 73 397 80 q 406 86 422 110 q 438 134 459 182 q 479 230 496 276 q 512 322 521 350 l 522 352 q 523 356 527 367 q 527 367 527 368 q 537 403 561 469 q 584 535 619 605 q 654 676 699 723 q 702 726 706 726 q 709 726 713 723 q 716 720 716 716 q 716 712 713 709 q 669 664 635 595 q 601 526 578 461 q 556 396 545 362 q 542 351 541 345 l 540 343 q 490 194 452 123 q 414 53 383 53 q 383 53 383 53 q 383 53 383 53 q 354 54 338 108 q 320 170 317 257 q 313 344 317 432 q 321 520 328 587 q 327 585 327 583 q 326 582 326 581 q 294 478 256 377 q 218 276 161 188 q 104 99 16 32 q 13 30 10 30 z"},"+":{"x_min":0,"x_max":255,"ha":255,"o":"m 74 169 q 72 169 71 170 q 67 171 65 175 q 63 178 64 182 l 125 393 q 126 396 130 398 q 133 400 137 399 q 141 398 143 395 q 145 391 144 387 l 83 177 q 80 169 74 169 z m 211 277 q 211 277 210 277 l 10 282 q 5 282 3 285 q 0 288 0 292 q 0 296 3 299 q 6 301 10 301 l 211 296 q 215 296 218 294 q 221 291 221 287 q 221 283 218 280 q 215 277 211 277 z"},"G":{"x_min":0,"x_max":528,"ha":528,"o":"m 434 312 q 428 304 410 278 q 384 241 352 181 q 320 121 300 51 q 290 15 286 -8 q 282 -30 282 -43 q 282 -56 283 -61 q 285 -66 285 -67 q 289 -66 292 -68 q 295 -69 296 -73 q 297 -77 296 -80 q 294 -84 291 -85 q 288 -86 285 -86 q 279 -86 272 -82 q 267 -77 264 -65 q 261 -52 264 -24 q 267 4 281 56 q 308 146 348 216 q 326 191 300 167 q 147 17 75 27 q 5 40 1 135 q 0 200 28 285 q 57 370 107 455 q 226 644 356 675 q 419 687 444 634 q 461 593 445 540 q 430 487 380 450 q 377 448 373 448 q 369 449 367 453 q 364 456 365 460 q 366 464 369 466 q 412 499 426 545 q 440 592 426 626 q 421 641 406 651 q 390 661 360 656 q 238 626 124 444 q 75 362 47 280 q 20 198 21 136 q 23 55 78 47 q 110 43 157 74 q 205 104 256 152 q 307 199 352 248 q 386 285 409 312 l 388 312 q 339 312 302 311 q 266 311 258 310 q 257 309 256 309 q 253 309 250 311 q 248 313 247 316 q 246 320 248 324 q 250 327 254 328 q 263 330 306 331 q 350 332 401 332 q 452 332 477 332 q 480 332 483 329 q 486 326 486 322 q 486 318 483 315 q 480 312 477 312 z"},"q":{"x_min":0,"x_max":156,"ha":156,"o":"m -58 -58 q -60 -58 -62 -57 q -66 -55 -67 -52 q -68 -48 -67 -44 l 69 276 q 60 265 49 250 q -6 179 -40 194 q -63 207 -53 250 q -46 276 -24 309 q -1 342 30 351 q 40 353 53 349 q 66 346 80 329 q 81 328 81 327 q 91 341 97 349 q 102 357 104 361 q 106 365 106 365 q 108 369 112 370 q 115 371 119 370 q 123 368 124 365 q 125 361 124 357 l -14 31 q -2 41 4 38 q 8 38 11 35 q 15 32 17 23 q 19 11 22 6 q 24 1 26 1 q 28 0 34 1 q 40 2 51 9 q 55 12 59 11 q 62 10 65 6 q 67 3 66 -1 q 65 -4 62 -7 q 53 -13 42 -17 q 30 -21 18 -17 q 3 -10 -1 16 q -10 7 -24 -12 q -37 -32 -49 -53 q -53 -58 -58 -58 z m 40 332 q 37 332 34 332 q 12 325 -8 297 q -27 270 -34 245 q -40 216 -31 211 q -26 208 -10 218 q 6 228 34 262 q 57 293 72 313 q 67 313 64 317 q 53 332 40 332 z"},"d":{"x_min":0,"x_max":203,"ha":203,"o":"m 53 72 q 50 72 46 74 q 36 79 36 111 q 36 136 48 189 q 61 242 81 300 q 15 214 -17 188 q -29 178 -38 178 q -46 179 -50 183 q -62 193 -61 217 q -59 240 -48 263 q -42 279 -20 312 q 1 344 30 360 q 50 368 66 360 q 81 352 88 341 q 99 355 110 371 q 142 440 180 515 q 219 590 239 618 q 242 622 248 628 q 253 634 260 638 q 267 641 274 638 q 281 633 282 624 q 283 615 281 606 q 279 597 277 593 q 271 574 246 533 q 222 493 161 407 q 144 383 127 361 q 118 341 111 325 q 87 263 71 201 q 55 139 55 111 q 56 94 57 91 q 60 90 62 86 q 64 83 63 79 q 62 76 58 73 q 56 72 53 72 z m 47 345 q 43 344 39 342 q 3 324 -31 254 q -40 233 -41 217 q -42 201 -38 198 q -38 198 -35 199 q -33 200 -29 203 q 4 230 76 325 q 74 327 73 329 q 73 329 69 333 q 66 337 60 341 q 55 345 47 345 z m 263 616 q 260 613 255 606 q 243 590 222 551 q 200 511 176 462 q 247 565 259 599 q 262 609 263 616 z"},"1":{"x_min":0,"x_max":209,"ha":209,"o":"m 10 71 q 9 71 8 71 q 4 72 2 76 q 0 79 1 83 l 156 603 q 157 606 160 608 q 164 610 167 609 q 171 608 173 604 q 175 601 174 597 l 20 78 q 17 71 10 71 z"},"5":{"x_min":0,"x_max":350,"ha":350,"o":"m 83 91 q 40 91 3 125 q 0 128 0 132 q 0 136 3 139 q 6 142 10 142 q 14 142 17 140 q 50 110 80 111 q 111 111 133 125 q 183 153 215 216 q 247 279 238 330 q 226 386 160 394 q 143 395 127 389 q 110 382 98 375 q 87 370 81 368 q 74 366 69 372 q 65 375 66 385 q 66 395 75 418 q 83 445 102 489 q 118 527 131 556 q 144 585 145 587 q 147 593 153 593 q 153 593 153 593 l 306 591 q 311 591 313 589 q 316 586 316 582 q 316 578 313 575 q 311 572 306 572 l 160 573 q 134 517 114 467 q 93 416 86 392 q 88 393 89 393 q 103 401 122 408 q 141 415 162 414 q 241 403 257 333 q 267 276 233 207 q 197 139 143 108 q 112 91 83 91 z"}}}
